# xmcd
#
# Track frame offsets:
#	150
#	12760
#	30418
#	44224
#	58491
#	71506
#	88934
#
# Disc length: 1305 seconds
#
# Revision: 1
# Processed by: cddbd v1.5.2PL0 Copyright (c) Steve Scherf et al.
# Submitted via: audiograbber 1.83.01
#
DISCID=60051707
DTITLE=alin coen - eigenproduktion
DYEAR=1900
DGENRE=
TTITLE0=stram
TTITLE1=same boat
TTITLE2=left behind
TTITLE3=darts
TTITLE4=festhalten
TTITLE5=das letzte lied
TTITLE6=wolken
EXTD=
EXTT0=
EXTT1=
EXTT2=
EXTT3=
EXTT4=
EXTT5=
EXTT6=
PLAYORDER=
